<?xml version="1.0" encoding="UTF-8"?>
<svg width="40" height="40" viewBox="0 0 40 40" xmlns="http://www.w3.org/2000/svg">
  <circle cx="20" cy="20" r="20" fill="#2D3748" />
  <path d="M20,10 C14.4772,10 10,14.4772 10,20 C10,25.5228 14.4772,30 20,30 C25.5228,30 30,25.5228 30,20 C30,14.4772 25.5228,10 20,10 Z M20,28 C15.5817,28 12,24.4183 12,20 C12,15.5817 15.5817,12 20,12 C24.4183,12 28,15.5817 28,20 C28,24.4183 24.4183,28 20,28 Z" fill="#FFFFFF" />
  <path d="M20,12 C15.5817,12 12,15.5817 12,20 C12,24.4183 15.5817,28 20,28 C24.4183,28 28,24.4183 28,20 C28,15.5817 24.4183,12 20,12 Z" fill="#FFFFFF" />
  <path d="M20,12 C17.7909,12 16,10.2091 16,8 C16,5.7909 17.7909,4 20,4 C22.2091,4 24,5.7909 24,8 C24,10.2091 22.2091,12 20,12 Z" fill="#FFFFFF" fill-opacity="0.3" />
</svg>
