<?xml version="1.0" encoding="UTF-8"?>
<svg width="40" height="40" viewBox="0 0 40 40" xmlns="http://www.w3.org/2000/svg">
  <circle cx="20" cy="20" r="20" fill="#F7FAFC" />
  <circle cx="20" cy="20" r="10" fill="#F9A826" />
  <path d="M20,5 C21.1046,5 22,5.89543 22,7 L22,9 C22,10.1046 21.1046,11 20,11 C18.8954,11 18,10.1046 18,9 L18,7 C18,5.89543 18.8954,5 20,5 Z" fill="#F9A826" />
  <path d="M20,29 C21.1046,29 22,29.8954 22,31 L22,33 C22,34.1046 21.1046,35 20,35 C18.8954,35 18,34.1046 18,33 L18,31 C18,29.8954 18.8954,29 20,29 Z" fill="#F9A826" />
  <path d="M5,20 C5,18.8954 5.89543,18 7,18 L9,18 C10.1046,18 11,18.8954 11,20 C11,21.1046 10.1046,22 9,22 L7,22 C5.89543,22 5,21.1046 5,20 Z" fill="#F9A826" />
  <path d="M29,20 C29,18.8954 29.8954,18 31,18 L33,18 C34.1046,18 35,18.8954 35,20 C35,21.1046 34.1046,22 33,22 L31,22 C29.8954,22 29,21.1046 29,20 Z" fill="#F9A826" />
</svg>
